<svg width="24" height="16" viewBox="0 0 24 16" fill="none" xmlns="http://www.w3.org/2000/svg">
<path fill-rule="evenodd" clip-rule="evenodd" d="M10.9776 10.4874C13.0775 9.08935 14.0144 6.48125 13.2841 4.06652C12.5539 1.6518 10.3287 6.79235e-06 7.80591 6.79235e-06C5.28317 6.79235e-06 3.05795 1.6518 2.32768 4.06652C1.5974 6.48125 2.53432 9.08935 4.63426 10.4874C2.78421 11.1692 1.20421 12.431 0.130046 14.0844C-0.0235985 14.3128 -0.0423685 14.6062 0.0809245 14.8523C0.204217 15.0984 0.450467 15.259 0.725361 15.2726C1.00026 15.2862 1.2612 15.1508 1.40824 14.9181C2.81599 12.753 5.22333 11.4467 7.80591 11.4467C10.3885 11.4467 12.7958 12.753 14.2036 14.9181C14.4365 15.2643 14.9042 15.3592 15.2536 15.1313C15.603 14.9034 15.7047 14.4371 15.4818 14.0844C14.4076 12.431 12.8276 11.1692 10.9776 10.4874ZM3.60884 5.7256C3.60884 3.40763 5.48794 1.52854 7.80591 1.52854C10.1239 1.52854 12.003 3.40763 12.003 5.7256C12.003 8.04358 10.1239 9.92267 7.80591 9.92267C5.48902 9.92004 3.61147 8.04249 3.60884 5.7256ZM23.6537 15.1404C23.3007 15.3706 22.828 15.2711 22.5977 14.9181C21.1916 12.7515 18.783 11.4454 16.2 11.4489C15.7786 11.4489 15.4369 11.1072 15.4369 10.6858C15.4369 10.2643 15.7786 9.92267 16.2 9.92267C17.8904 9.92108 19.4148 8.90562 20.0676 7.34642C20.7203 5.78721 20.374 3.98857 19.189 2.78319C18.004 1.57782 16.2115 1.20096 14.6414 1.8271C14.3866 1.93727 14.092 1.90033 13.8722 1.73065C13.6525 1.56097 13.5422 1.28532 13.5843 1.0109C13.6264 0.73647 13.8143 0.506568 14.0748 0.410589C16.7962 -0.67473 19.8977 0.470372 21.261 3.06372C22.6242 5.65708 21.8087 8.86115 19.3717 10.4874C21.2218 11.1692 22.8017 12.431 23.8759 14.0844C24.1061 14.4374 24.0066 14.9101 23.6537 15.1404Z" fill="white"/>
</svg>
