<svg width="20" height="20" viewBox="0 0 20 20" fill="none" xmlns="http://www.w3.org/2000/svg">
<path fill-rule="evenodd" clip-rule="evenodd" d="M10 0C4.47715 0 0 4.47715 0 10C0 15.5228 4.47715 20 10 20C15.5228 20 20 15.5228 20 10C19.9942 4.47957 15.5204 0.00582964 10 0ZM10 18.4615C5.32682 18.4615 1.53846 14.6732 1.53846 10C1.53846 5.32682 5.32682 1.53846 10 1.53846C14.6732 1.53846 18.4615 5.32682 18.4615 10C18.4562 14.671 14.671 18.4562 10 18.4615ZM5.38462 8.07692C5.38462 7.43967 5.90121 6.92308 6.53846 6.92308C7.17571 6.92308 7.69231 7.43967 7.69231 8.07692C7.69231 8.71418 7.17571 9.23077 6.53846 9.23077C5.90121 9.23077 5.38462 8.71418 5.38462 8.07692ZM14.6154 8.07692C14.6154 8.71418 14.0988 9.23077 13.4615 9.23077C12.8243 9.23077 12.3077 8.71418 12.3077 8.07692C12.3077 7.43967 12.8243 6.92308 13.4615 6.92308C14.0988 6.92308 14.6154 7.43967 14.6154 8.07692ZM14.5125 12.6923C13.5231 14.4029 11.8779 15.3846 10 15.3846C8.12212 15.3846 6.47789 14.4038 5.48846 12.6923C5.33688 12.4539 5.32822 12.1515 5.46592 11.9048C5.60362 11.658 5.86551 11.5066 6.14804 11.5105C6.43057 11.5143 6.68826 11.6727 6.81923 11.9231C7.5375 13.1644 8.66635 13.8462 10 13.8462C11.3337 13.8462 12.4625 13.1635 13.1798 11.9231C13.3922 11.5551 13.8628 11.4289 14.2308 11.6413C14.5988 11.8538 14.7249 12.3243 14.5125 12.6923Z" fill="white"/>
</svg>
