<svg width="28" height="28" viewBox="0 0 28 28" fill="none" xmlns="http://www.w3.org/2000/svg">
<g clip-path="url(#clip0_3_114)">
<path fill-rule="evenodd" clip-rule="evenodd" d="M22.055 21.7456L7.055 5.24563C6.87576 5.04358 6.60173 4.95351 6.33757 5.00983C6.07341 5.06615 5.85994 5.26015 5.77869 5.51773C5.69744 5.77531 5.76097 6.05668 5.945 6.25437L9.5 10.1647V14C9.50022 15.6451 10.3981 17.159 11.8416 17.948C13.2852 18.7371 15.0442 18.6755 16.4291 17.7875L17.4491 18.9125C15.6165 20.1999 13.2194 20.3595 11.2323 19.3265C9.24524 18.2934 7.99891 16.2396 8 14C8 13.5858 7.66421 13.25 7.25 13.25C6.83579 13.25 6.5 13.5858 6.5 14C6.50473 17.8499 9.41988 21.0728 13.25 21.4625V23.75C13.25 24.1642 13.5858 24.5 14 24.5C14.4142 24.5 14.75 24.1642 14.75 23.75V21.4616C16.0951 21.3277 17.3788 20.8317 18.4644 20.0263L20.945 22.7544C21.1242 22.9564 21.3983 23.0465 21.6624 22.9902C21.9266 22.9339 22.1401 22.7399 22.2213 22.4823C22.3026 22.2247 22.239 21.9433 22.055 21.7456ZM14 17C12.3431 17 11 15.6569 11 14V11.8147L15.3988 16.6541C14.9675 16.8813 14.4874 17 14 17ZM10.1713 5.63562C11.2284 3.92378 13.2934 3.12169 15.2289 3.67114C17.1644 4.22058 18.5 5.98804 18.5 8V13.6653C18.5 14.0795 18.1642 14.4153 17.75 14.4153C17.3358 14.4153 17 14.0795 17 13.6653V8C17.0007 6.65794 16.11 5.47865 14.819 5.11229C13.5279 4.74592 12.1505 5.28163 11.4462 6.42406C11.3103 6.66216 11.0552 6.80708 10.781 6.80198C10.5069 6.79688 10.2574 6.64259 10.1303 6.3996C10.0033 6.15661 10.019 5.86366 10.1713 5.63562ZM19.5912 16.1816C19.8626 15.4863 20.0012 14.7463 20 14C20 13.5858 20.3358 13.25 20.75 13.25C21.1642 13.25 21.5 13.5858 21.5 14C21.5013 14.9331 21.3277 15.8581 20.9881 16.7272C20.8947 16.9824 20.6705 17.1671 20.4021 17.21C20.1337 17.2528 19.8632 17.1471 19.6949 16.9337C19.5266 16.7203 19.487 16.4325 19.5912 16.1816Z" fill="white"/>
</g>
<defs>
<clipPath id="clip0_3_114">
<rect width="24" height="24" fill="white" transform="translate(2 2)"/>
</clipPath>
</defs>
</svg>
