<svg width="20" height="18" viewBox="0 0 20 18" fill="none" xmlns="http://www.w3.org/2000/svg">
<path fill-rule="evenodd" clip-rule="evenodd" d="M18.7629 5.24126H14.2035L14.9981 0.872331C15.0645 0.468188 14.7946 0.0854255 14.3917 0.0122056C13.9887 -0.0610142 13.6015 0.202349 13.5214 0.604022L12.6771 5.24126H8.19937L8.99397 0.872331C9.06039 0.468188 8.79053 0.0854255 8.38757 0.0122056C7.9846 -0.0610142 7.59734 0.202349 7.51734 0.604022L6.67395 5.24126H2.25154C1.83704 5.24126 1.50103 5.57728 1.50103 5.99177C1.50103 6.40627 1.83704 6.74229 2.25154 6.74229H6.40095L5.58195 11.2454H0.750514C0.336016 11.2454 0 11.5814 0 11.9959C0 12.4104 0.336016 12.7464 0.750514 12.7464H5.30989L4.51528 17.1153C4.44125 17.5231 4.71172 17.9137 5.11944 17.9878C5.16369 17.996 5.2086 18.0001 5.2536 18C5.61596 17.9995 5.92621 17.7402 5.99098 17.3836L6.83531 12.7464H11.314L10.5194 17.1153C10.4454 17.5231 10.7158 17.9137 11.1236 17.9878C11.1678 17.996 11.2127 18.0001 11.2577 18C11.6201 17.9995 11.9303 17.7402 11.9951 17.3836L12.8394 12.7464H17.2618C17.6763 12.7464 18.0123 12.4104 18.0123 11.9959C18.0123 11.5814 17.6763 11.2454 17.2618 11.2454H13.1124L13.9314 6.74229H18.7629C19.1773 6.74229 19.5134 6.40627 19.5134 5.99177C19.5134 5.57728 19.1773 5.24126 18.7629 5.24126ZM11.5861 11.2454H7.10831L7.9273 6.74229H12.4051L11.5861 11.2454Z" fill="white"/>
</svg>
