<svg width="15" height="17" viewBox="0 0 15 17" fill="none" xmlns="http://www.w3.org/2000/svg">
<path fill-rule="evenodd" clip-rule="evenodd" d="M14.8298 11.8724C14.3961 11.1254 13.7515 9.01177 13.7515 6.25112C13.7515 2.79872 10.9528 0 7.50037 0C4.04797 0 1.24925 2.79872 1.24925 6.25112C1.24925 9.01255 0.603819 11.1254 0.170148 11.8724C-0.0552648 12.259 -0.0569043 12.7365 0.165849 13.1246C0.388602 13.5127 0.801779 13.7521 1.24925 13.7525H4.4381C4.73543 15.2074 6.01539 16.2522 7.50037 16.2522C8.98534 16.2522 10.2653 15.2074 10.5626 13.7525H13.7515C14.1988 13.7519 14.6117 13.5123 14.8343 13.1243C15.0569 12.7362 15.0551 12.2589 14.8298 11.8724ZM7.50037 15.0027C6.70584 15.0024 5.9977 14.5015 5.73286 13.7525H9.26787C9.00303 14.5015 8.29489 15.0024 7.50037 15.0027ZM1.24925 12.5022C1.85092 11.4677 2.49947 9.07037 2.49947 6.25112C2.49947 3.4892 4.73845 1.25022 7.50037 1.25022C10.2623 1.25022 12.5013 3.4892 12.5013 6.25112C12.5013 9.06803 13.1483 11.4653 13.7515 12.5022H1.24925Z" fill="white"/>
</svg>
