<svg width="15" height="21" viewBox="0 0 15 21" fill="none" xmlns="http://www.w3.org/2000/svg">
<path fill-rule="evenodd" clip-rule="evenodd" d="M7.5 15C9.98421 14.9974 11.9974 12.9842 12 10.5V4.5C12 2.01472 9.98528 0 7.5 0C5.01472 0 3 2.01472 3 4.5V10.5C3.00258 12.9842 5.01579 14.9974 7.5 15ZM4.5 4.5C4.5 2.84315 5.84315 1.5 7.5 1.5C9.15685 1.5 10.5 2.84315 10.5 4.5V10.5C10.5 12.1569 9.15685 13.5 7.5 13.5C5.84315 13.5 4.5 12.1569 4.5 10.5V4.5ZM8.25 17.9625V20.25C8.25 20.6642 7.91421 21 7.5 21C7.08579 21 6.75 20.6642 6.75 20.25V17.9625C2.91988 17.5728 0.0047307 14.3499 0 10.5C0 10.0858 0.335786 9.75 0.75 9.75C1.16421 9.75 1.5 10.0858 1.5 10.5C1.5 13.8137 4.18629 16.5 7.5 16.5C10.8137 16.5 13.5 13.8137 13.5 10.5C13.5 10.0858 13.8358 9.75 14.25 9.75C14.6642 9.75 15 10.0858 15 10.5C14.9953 14.3499 12.0801 17.5728 8.25 17.9625Z" fill="white"/>
</svg>
